# xmcd
# Track frame offsets:
# 150
# 11011
# 20827
# 31150
# 43884
# 53674
# 62658
# 71970
# 83824
# 94604
# 106232
# 118506
# 128871
# 139703
# 152372
# 164517
# 173255
# 185126
# 194908
# 205543
# 217504
# 227022
# 236407
# 247685
# 257974
# 268672
# 279387
#
# Disc length: 3877 seconds
# Revision: 0
# Processed by: cddbd v1.5.2PL0 Copyright (c) Steve Scherf et al.
# Submitted via: VisiTrax 2.11.1.266 - For more info visit www.synapsa.com
#
DISCID=710f231b
DTITLE=Price, Lloyd - Restless Heart: The Ultimate Singles Collection 1952-19
DTITLE=59 (Disk 2 of 2)
DYEAR=1957
DGENRE=R&B
TTITLE0=Oh Oh Oh
TTITLE1=Mailman Blues
TTITLE2=Chicken and the Bop, The
TTITLE3=Lonely Chair
TTITLE4=Georgianna
TTITLE5=Hello Litlle Girl
TTITLE6=How Many Times
TTITLE7=To Love and Be Loved
TTITLE8=Such A Mess
TTITLE9=No Limit To Love
TTITLE10=Gonna Let You Come Back Home
TTITLE11=Down By the River
TTITLE12=Stagger Lee
TTITLE13=You Need Love
TTITLE14=Where Were You On Our Wedding Day
TTITLE15=Is It Really Love
TTITLE16=(Your've Got) Personality
TTITLE17=Have You Ever Had the Blues
TTITLE18=I'm Gonna Get Married
TTITLE19=Three Little Pigs
TTITLE20=Come Into My Heart
TTITLE21=Wont'cha Come Home
TTITLE22=Never Let me Go
TTITLE23=Lady Luck
TTITLE24=No If's - No And's
TTITLE25=For Love
TTITLE26=Question
EXTD=Jasmine Records JASCD 552 c.2010 import
EXTT0=
EXTT1=
EXTT2=
EXTT3=
EXTT4=
EXTT5=
EXTT6=
EXTT7=
EXTT8=
EXTT9=
EXTT10=
EXTT11=
EXTT12=
EXTT13=
EXTT14=
EXTT15=
EXTT16=
EXTT17=
EXTT18=
EXTT19=
EXTT20=
EXTT21=
EXTT22=
EXTT23=
EXTT24=
EXTT25=
EXTT26=
PLAYORDER=
